<?xml version="1.0" encoding="UTF-8"?>
<svg xmlns="http://www.w3.org/2000/svg" xmlns:xlink="http://www.w3.org/1999/xlink" width="40px" height="40px" viewBox="0 0 40 40" version="1.1">
<g id="surface1">
<path style=" stroke:none;fill-rule:nonzero;fill:rgb(0%,45.490196%,74.117649%);fill-opacity:1;" d="M 14.878906 30.664062 C 14.878906 30.664062 13.390625 31.53125 15.941406 31.820312 C 19.03125 32.175781 20.613281 32.125 24.019531 31.480469 C 24.019531 31.480469 24.914062 32.042969 26.167969 32.527344 C 18.527344 35.800781 8.882812 32.339844 14.878906 30.664062 Z M 13.945312 26.390625 C 13.945312 26.390625 12.273438 27.628906 14.828125 27.894531 C 18.132812 28.234375 20.738281 28.261719 25.25 27.394531 C 25.25 27.394531 25.875 28.027344 26.855469 28.371094 C 17.625 31.070312 7.339844 28.585938 13.945312 26.390625 Z M 13.945312 26.390625 "/>
<path style=" stroke:none;fill-rule:nonzero;fill:rgb(91.764706%,17.647059%,18.039216%);fill-opacity:1;" d="M 21.8125 19.148438 C 23.695312 21.3125 21.320312 23.261719 21.320312 23.261719 C 21.320312 23.261719 26.097656 20.796875 23.902344 17.707031 C 21.855469 14.828125 20.28125 13.398438 28.789062 8.464844 C 28.789062 8.464844 15.4375 11.796875 21.8125 19.148438 Z M 21.8125 19.148438 "/>
<path style=" stroke:none;fill-rule:nonzero;fill:rgb(0%,45.490196%,74.117649%);fill-opacity:1;" d="M 31.914062 33.820312 C 31.914062 33.820312 33.015625 34.730469 30.699219 35.433594 C 26.292969 36.769531 12.351562 37.171875 8.480469 35.488281 C 7.089844 34.882812 9.699219 34.042969 10.519531 33.863281 C 11.375 33.679688 11.867188 33.714844 11.867188 33.714844 C 10.316406 32.625 1.863281 35.855469 7.570312 36.78125 C 23.140625 39.304688 35.953125 35.644531 31.914062 33.820312 Z M 15.597656 21.96875 C 15.597656 21.96875 8.507812 23.652344 13.085938 24.261719 C 15.019531 24.523438 18.875 24.460938 22.464844 24.160156 C 25.398438 23.914062 28.34375 23.386719 28.34375 23.386719 C 28.34375 23.386719 27.3125 23.832031 26.5625 24.34375 C 19.363281 26.234375 5.453125 25.355469 9.457031 23.417969 C 12.84375 21.78125 15.597656 21.96875 15.597656 21.96875 Z M 28.316406 29.074219 C 35.632812 25.273438 32.25 21.617188 29.886719 22.109375 C 29.308594 22.230469 29.050781 22.335938 29.050781 22.335938 C 29.050781 22.335938 29.265625 22 29.675781 21.855469 C 34.347656 20.210938 37.941406 26.699219 28.167969 29.269531 C 28.167969 29.265625 28.28125 29.164062 28.316406 29.074219 Z M 28.316406 29.074219 "/>
<path style=" stroke:none;fill-rule:nonzero;fill:rgb(91.764706%,17.647059%,18.039216%);fill-opacity:1;" d="M 23.902344 0.496094 C 23.902344 0.496094 27.957031 4.550781 20.058594 10.785156 C 13.726562 15.785156 18.613281 18.636719 20.054688 21.898438 C 16.359375 18.5625 13.648438 15.625 15.464844 12.890625 C 18.136719 8.882812 25.539062 6.9375 23.902344 0.496094 Z M 23.902344 0.496094 "/>
<path style=" stroke:none;fill-rule:nonzero;fill:rgb(0%,45.490196%,74.117649%);fill-opacity:1;" d="M 16.316406 39.382812 C 23.339844 39.832031 34.128906 39.132812 34.382812 35.808594 C 34.382812 35.808594 33.894531 37.066406 28.578125 38.066406 C 22.582031 39.195312 15.1875 39.066406 10.800781 38.339844 C 10.800781 38.339844 11.699219 39.085938 16.316406 39.382812 Z M 16.316406 39.382812 "/>
</g>
</svg>
