<?xml version="1.0" encoding="UTF-8"?>
<svg xmlns="http://www.w3.org/2000/svg" xmlns:xlink="http://www.w3.org/1999/xlink" width="40px" height="40px" viewBox="0 0 40 40" version="1.1">
<g id="surface1">
<path style=" stroke:none;fill-rule:nonzero;fill:rgb(96.862745%,87.450981%,11.764706%);fill-opacity:1;" d="M 6 0 L 34 0 C 37.3125 0 40 2.6875 40 6 L 40 34 C 40 37.3125 37.3125 40 34 40 L 6 40 C 2.6875 40 0 37.3125 0 34 L 0 6 C 0 2.6875 2.6875 0 6 0 Z M 6 0 "/>
<path style=" stroke:none;fill-rule:nonzero;fill:rgb(0%,0%,0%);fill-opacity:1;" d="M 25.3125 28.90625 C 26.09375 30.234375 27.1875 31.171875 28.984375 31.171875 C 30.546875 31.171875 31.5625 30.390625 31.5625 29.296875 C 31.5625 28.046875 30.546875 27.578125 28.828125 26.796875 L 27.890625 26.40625 C 25.15625 25.234375 23.359375 23.828125 23.359375 20.78125 C 23.359375 17.96875 25.46875 15.78125 28.828125 15.78125 C 31.25 15.78125 32.96875 16.640625 34.140625 18.828125 L 31.25 20.703125 C 30.625 19.53125 29.921875 19.0625 28.828125 19.0625 C 27.734375 19.0625 27.03125 19.765625 27.03125 20.703125 C 27.03125 21.796875 27.734375 22.265625 29.375 22.96875 L 30.3125 23.359375 C 33.515625 24.765625 35.3125 26.09375 35.3125 29.296875 C 35.3125 32.65625 32.65625 34.53125 29.0625 34.53125 C 25.546875 34.53125 23.28125 32.890625 22.1875 30.703125 Z M 12.03125 29.21875 C 12.65625 30.234375 13.125 31.171875 14.453125 31.171875 C 15.703125 31.171875 16.484375 30.703125 16.484375 28.828125 L 16.484375 15.859375 L 20.234375 15.859375 L 20.234375 28.671875 C 20.234375 32.578125 17.96875 34.296875 14.609375 34.296875 C 11.5625 34.296875 9.84375 32.734375 8.984375 30.859375 Z M 12.03125 29.21875 "/>
</g>
</svg>
