<?xml version="1.0" encoding="UTF-8"?>
<svg xmlns="http://www.w3.org/2000/svg" xmlns:xlink="http://www.w3.org/1999/xlink" width="40px" height="40px" viewBox="0 0 40 40" version="1.1">
<g id="surface1">
<path style=" stroke:none;fill-rule:nonzero;fill:rgb(97.647059%,75.686276%,1.960784%);fill-opacity:1;" d="M 18.050781 9.316406 C 18.183594 9.265625 18.367188 9.25 18.484375 9.316406 C 18.515625 9.332031 18.550781 9.367188 18.535156 9.398438 L 18.535156 9.433594 L 18.550781 9.433594 C 18.515625 9.535156 18.351562 9.515625 18.265625 9.550781 C 18.183594 9.582031 18.117188 9.667969 18.035156 9.667969 C 17.949219 9.667969 17.816406 9.632812 17.800781 9.550781 C 17.785156 9.433594 17.949219 9.316406 18.050781 9.316406 Z M 19.75 9.550781 C 19.667969 9.515625 19.5 9.535156 19.484375 9.433594 L 19.484375 9.398438 C 19.464844 9.367188 19.5 9.332031 19.515625 9.316406 C 20.066406 9.316406 20.234375 9.433594 20.214844 9.550781 C 20.199219 9.632812 20.066406 9.648438 19.984375 9.648438 C 19.898438 9.648438 19.832031 9.582031 19.75 9.550781 Z M 16.816406 11.964844 C 17.316406 12.300781 17.964844 12.75 18.785156 12.75 C 19.601562 12.75 20.566406 12.300781 21.148438 11.964844 C 21.464844 11.75 21.898438 11.417969 22.234375 11.183594 C 22.5 10.964844 22.484375 10.75 22.714844 10.75 C 22.933594 10.765625 22.765625 10.964844 22.464844 11.300781 C 22.148438 11.515625 21.683594 11.851562 21.300781 12.082031 C 20.566406 12.417969 19.699219 12.964844 18.785156 12.964844 C 17.882812 12.964844 17.148438 12.515625 16.632812 12.183594 C 16.367188 11.964844 16.167969 11.75 16 11.632812 C 15.734375 11.417969 15.765625 11.082031 15.882812 11.082031 C 16.066406 11.101562 16.101562 11.300781 16.214844 11.417969 C 16.382812 11.515625 16.582031 11.75 16.816406 11.964844 Z M 16.816406 11.964844 "/>
<path style=" stroke:none;fill-rule:nonzero;fill:rgb(0%,0%,0%);fill-opacity:1;" d="M 20.214844 9.550781 C 20.199219 9.632812 20.066406 9.648438 19.984375 9.648438 C 19.898438 9.648438 19.832031 9.582031 19.75 9.550781 C 19.667969 9.515625 19.5 9.535156 19.484375 9.433594 L 19.484375 9.398438 C 19.464844 9.367188 19.5 9.332031 19.515625 9.316406 C 20.066406 9.316406 20.234375 9.433594 20.214844 9.550781 Z M 20.214844 9.550781 "/>
<path style=" stroke:none;fill-rule:nonzero;fill:rgb(0%,0%,0%);fill-opacity:1;" d="M 27.714844 18.300781 L 27.714844 19.832031 L 26.800781 19.832031 C 27.632812 21.351562 28.226562 22.984375 28.566406 24.683594 C 28.816406 24.667969 29.117188 24.714844 29.433594 24.785156 C 29.566406 24.433594 29.648438 24.082031 29.699219 23.734375 C 30.015625 21.417969 28.550781 19.148438 27.714844 18.300781 Z M 27.714844 18.300781 L 27.714844 19.832031 L 26.800781 19.832031 C 27.632812 21.351562 28.226562 22.984375 28.566406 24.683594 C 28.816406 24.667969 29.117188 24.714844 29.433594 24.785156 C 29.566406 24.433594 29.648438 24.082031 29.699219 23.734375 C 30.015625 21.417969 28.550781 19.148438 27.714844 18.300781 Z M 35.464844 31.582031 L 35.464844 31.433594 L 35.449219 31.417969 C 35.167969 31.082031 35.035156 30.535156 34.882812 29.882812 C 34.75 29.214844 34.582031 28.566406 34.050781 28.132812 C 33.949219 28.050781 33.851562 28.035156 33.734375 27.917969 C 33.882812 26.433594 33.933594 25.050781 33.699219 23.734375 C 33.582031 23.015625 33.382812 22.316406 33.117188 21.648438 C 32.214844 19.300781 30.648438 17.25 29.449219 15.851562 C 28.832031 15.066406 28.199219 14.285156 27.714844 13.449219 C 27.167969 12.5 26.800781 11.484375 26.816406 10.234375 C 26.851562 7.917969 27 4.300781 25.367188 2.050781 C 24.5 0.832031 23.082031 0 20.851562 0 C 20.582031 0 20.316406 0.015625 20.035156 0.0351562 C 17.917969 0.199219 16.601562 0.964844 15.785156 2.050781 C 13.867188 4.582031 14.765625 8.785156 14.699219 10.535156 C 14.566406 12.351562 14.199219 13.785156 12.933594 15.566406 C 12.417969 16.167969 11.816406 16.898438 11.234375 17.734375 C 10.117188 19.300781 9 21.167969 8.351562 23.101562 C 7.933594 24.351562 7.699219 25.632812 7.816406 26.867188 L 7.867188 27.25 C 7.800781 27.300781 7.734375 27.367188 7.683594 27.464844 C 7.234375 27.917969 6.917969 28.464844 6.566406 28.867188 C 6.214844 29.199219 5.75 29.316406 5.214844 29.535156 C 4.683594 29.765625 4.101562 29.984375 3.765625 30.667969 C 3.601562 30.984375 3.535156 31.332031 3.535156 31.667969 C 3.535156 32 3.582031 32.351562 3.632812 32.566406 C 3.734375 33.234375 3.832031 33.785156 3.699219 34.183594 C 3.285156 35.316406 3.234375 36.101562 3.515625 36.667969 C 3.816406 37.214844 4.417969 37.433594 5.101562 37.667969 C 6.464844 38 8.316406 37.882812 9.785156 38.667969 C 11.332031 39.433594 12.933594 39.785156 14.183594 39.449219 C 15.082031 39.25 15.832031 38.667969 16.234375 37.867188 C 16.316406 37.867188 16.382812 37.867188 16.464844 37.851562 C 17.398438 37.800781 18.433594 37.417969 20.035156 37.316406 C 20.484375 37.285156 20.964844 37.332031 21.5 37.398438 C 22.351562 37.535156 23.316406 37.714844 24.382812 37.648438 C 24.417969 37.867188 24.484375 37.964844 24.566406 38.199219 L 24.582031 38.199219 C 25.234375 39.5 26.449219 40.082031 27.75 39.984375 C 29.050781 39.882812 30.433594 39.101562 31.566406 37.816406 C 32.617188 36.535156 34.398438 36 35.566406 35.300781 C 36.148438 34.984375 36.632812 34.535156 36.667969 33.882812 C 36.699219 33.214844 36.332031 32.535156 35.464844 31.582031 Z M 22.5 7.734375 C 22.433594 7.515625 22.332031 7.398438 22.199219 7.183594 C 22.050781 7.066406 21.917969 6.949219 21.75 6.949219 L 21.714844 6.949219 C 21.566406 6.949219 21.417969 7 21.285156 7.183594 C 21.117188 7.332031 21 7.515625 20.933594 7.734375 C 20.851562 7.949219 20.800781 8.167969 20.785156 8.398438 L 20.785156 8.433594 C 20.785156 8.582031 20.800781 8.734375 20.816406 8.882812 C 20.484375 8.765625 20.082031 8.648438 19.800781 8.535156 C 19.785156 8.433594 19.765625 8.316406 19.765625 8.214844 L 19.765625 8.183594 C 19.75 7.734375 19.832031 7.300781 20.015625 6.898438 C 20.148438 6.535156 20.398438 6.214844 20.734375 6 C 21.035156 5.785156 21.382812 5.667969 21.734375 5.667969 L 21.765625 5.667969 C 22.117188 5.667969 22.433594 5.785156 22.75 6 C 23.066406 6.234375 23.300781 6.550781 23.484375 6.898438 C 23.667969 7.316406 23.75 7.648438 23.765625 8.101562 C 23.765625 8.066406 23.785156 8.035156 23.785156 8 L 23.785156 8.167969 C 23.765625 8.167969 23.765625 8.148438 23.765625 8.132812 C 23.765625 8.515625 23.667969 8.917969 23.515625 9.285156 C 23.433594 9.484375 23.316406 9.683594 23.148438 9.832031 C 23.101562 9.800781 23.050781 9.785156 23 9.765625 C 22.832031 9.683594 22.667969 9.648438 22.515625 9.550781 C 22.402344 9.492188 22.277344 9.453125 22.148438 9.433594 C 22.234375 9.332031 22.398438 9.214844 22.464844 9.101562 C 22.550781 8.882812 22.601562 8.667969 22.617188 8.433594 L 22.617188 8.398438 C 22.617188 8.183594 22.582031 7.949219 22.5 7.734375 Z M 15.566406 7 C 15.648438 6.667969 15.816406 6.367188 16.050781 6.101562 C 16.265625 5.882812 16.484375 5.765625 16.75 5.765625 L 16.800781 5.765625 C 17.046875 5.769531 17.285156 5.851562 17.484375 6 C 17.734375 6.214844 17.933594 6.484375 18.066406 6.765625 C 18.214844 7.101562 18.300781 7.433594 18.316406 7.882812 C 18.332031 8 18.332031 8.082031 18.332031 8.167969 C 18.332031 8.234375 18.332031 8.285156 18.316406 8.332031 L 18.316406 8.464844 C 17.917969 8.601562 17.714844 8.734375 17.515625 8.832031 C 17.535156 8.699219 17.535156 8.550781 17.515625 8.398438 L 17.515625 8.367188 C 17.5 8.148438 17.449219 8.035156 17.382812 7.816406 C 17.328125 7.644531 17.230469 7.492188 17.101562 7.367188 L 16.75 7.265625 C 16.632812 7.265625 16.535156 7.332031 16.449219 7.484375 C 16.332031 7.617188 16.265625 7.765625 16.234375 7.933594 C 16.199219 8.117188 16.183594 8.300781 16.199219 8.484375 L 16.199219 8.515625 C 16.214844 8.734375 16.265625 8.851562 16.332031 9.066406 C 16.417969 9.285156 16.5 9.398438 16.617188 9.515625 C 16.632812 9.535156 16.648438 9.550781 16.667969 9.550781 C 16.550781 9.648438 16.484375 9.667969 16.382812 9.785156 C 15.984375 9.683594 15.832031 9.464844 15.699219 9.214844 C 15.535156 8.867188 15.449219 8.5 15.433594 8.117188 C 15.398438 7.734375 15.449219 7.351562 15.566406 7 Z M 15.75 10.515625 C 16.117188 10.285156 16.382812 10.050781 16.566406 9.949219 C 16.734375 9.832031 16.800781 9.785156 16.851562 9.734375 L 16.867188 9.734375 C 17.148438 9.382812 17.601562 8.949219 18.265625 8.714844 C 18.5 8.667969 18.765625 8.617188 19.066406 8.617188 C 19.617188 8.617188 20.300781 8.714844 21.101562 9.285156 C 21.601562 9.617188 21.984375 9.734375 22.882812 10.066406 C 23.316406 10.285156 23.566406 10.5 23.699219 10.734375 L 23.699219 10.5 C 23.816406 10.75 23.816406 11.035156 23.714844 11.285156 C 23.515625 11.816406 22.851562 12.367188 21.933594 12.699219 C 21.464844 12.917969 21.082031 13.25 20.617188 13.464844 C 20.148438 13.699219 19.632812 13.964844 18.917969 13.917969 C 18.660156 13.9375 18.402344 13.898438 18.167969 13.800781 C 17.964844 13.699219 17.785156 13.601562 17.617188 13.484375 C 17.285156 13.25 17 12.917969 16.582031 12.699219 C 15.898438 12.285156 15.535156 11.832031 15.417969 11.515625 C 15.300781 11.066406 15.417969 10.734375 15.75 10.515625 Z M 16.015625 36.617188 C 15.917969 37.851562 15.199219 38.515625 14.117188 38.765625 C 13.015625 38.984375 11.550781 38.765625 10.066406 38 C 8.449219 37.101562 6.5 37.214844 5.265625 36.984375 C 4.632812 36.882812 4.234375 36.648438 4.035156 36.316406 C 3.851562 35.984375 3.851562 35.316406 4.25 34.265625 C 4.449219 33.699219 4.300781 33 4.199219 32.398438 C 4.117188 31.734375 4.066406 31.214844 4.285156 30.832031 C 4.550781 30.265625 4.949219 30.167969 5.433594 29.933594 C 5.933594 29.714844 6.515625 29.601562 6.984375 29.167969 L 6.984375 29.148438 C 7.417969 28.699219 7.734375 28.148438 8.117188 27.75 C 8.433594 27.417969 8.75 27.199219 9.234375 27.199219 L 9.25 27.199219 C 9.332031 27.199219 9.417969 27.199219 9.515625 27.214844 C 10.148438 27.316406 10.699219 27.785156 11.234375 28.464844 L 12.765625 31.25 L 12.785156 31.25 C 13.183594 32.132812 14.050781 33.035156 14.785156 33.984375 C 15.515625 34.984375 16.082031 35.867188 16.015625 36.601562 Z M 21.5 35.550781 C 19.851562 35.933594 18.101562 35.816406 16.464844 34.917969 C 16.265625 34.816406 16.066406 34.699219 15.882812 34.566406 C 15.699219 34.25 15.464844 33.949219 15.199219 33.683594 C 15.078125 33.472656 14.917969 33.289062 14.734375 33.132812 C 15.050781 33.132812 15.316406 33.082031 15.535156 33.015625 C 15.765625 32.898438 15.964844 32.699219 16.050781 32.464844 C 16.234375 32.015625 16.050781 31.300781 15.464844 30.515625 C 14.882812 29.75 13.898438 28.867188 12.464844 27.984375 C 11.917969 27.632812 11.5 27.265625 11.183594 26.867188 C 10.867188 26.484375 10.648438 26.082031 10.515625 25.667969 C 10.25 24.765625 10.285156 23.851562 10.5 22.917969 C 10.75 21.816406 11.25 20.75 11.734375 19.832031 C 12.066406 19.25 12.382812 18.734375 12.648438 18.316406 C 12.816406 18.199219 12.699219 18.515625 12 19.832031 L 11.949219 19.933594 C 11.285156 21.183594 10.035156 24.101562 11.75 26.367188 C 11.816406 24.714844 12.183594 23.082031 12.832031 21.566406 C 13.050781 21.066406 13.332031 20.484375 13.632812 19.832031 C 14.617188 17.75 15.816406 15.050781 15.933594 12.785156 C 16.015625 12.851562 16.300781 13.015625 16.417969 13.117188 C 16.785156 13.351562 17.066406 13.683594 17.417969 13.898438 C 17.765625 14.234375 18.214844 14.449219 18.898438 14.449219 C 18.964844 14.464844 19.015625 14.464844 19.082031 14.464844 C 19.765625 14.464844 20.316406 14.25 20.765625 14.015625 C 21.25 13.800781 21.632812 13.464844 22 13.351562 L 22.015625 13.351562 C 22.800781 13.132812 23.417969 12.683594 23.785156 12.183594 C 24.382812 14.550781 25.800781 17.984375 26.699219 19.648438 C 27.585938 21.21875 28.214844 22.917969 28.566406 24.683594 C 28.816406 24.667969 29.117188 24.714844 29.433594 24.785156 C 29.566406 24.433594 29.648438 24.082031 29.699219 23.734375 C 30.015625 21.417969 28.550781 19.148438 27.714844 18.300781 C 27.667969 18.265625 27.617188 18.214844 27.582031 18.183594 C 27.214844 17.851562 27.199219 17.617188 27.382812 17.617188 C 27.5 17.714844 27.601562 17.816406 27.714844 17.933594 C 28.648438 18.898438 29.734375 20.449219 30.148438 22.214844 C 30.285156 22.699219 30.351562 23.214844 30.351562 23.734375 C 30.351562 24.148438 30.300781 24.582031 30.199219 25 C 30.300781 25.050781 30.417969 25.101562 30.535156 25.117188 C 32.285156 26 32.917969 26.667969 32.617188 27.667969 L 32.617188 27.601562 L 32.285156 27.601562 C 32.535156 26.816406 31.984375 26.214844 30.484375 25.566406 C 28.949219 24.898438 27.714844 25 27.5 26.332031 C 27.484375 26.398438 27.484375 26.449219 27.464844 26.566406 C 27.351562 26.601562 27.234375 26.648438 27.117188 26.667969 C 26.398438 27.117188 26 27.785156 25.785156 28.648438 C 25.566406 29.535156 25.5 30.566406 25.433594 31.765625 C 25.398438 32.316406 25.148438 33.167969 24.898438 34.015625 C 23.882812 34.734375 22.734375 35.285156 21.5 35.550781 Z M 35.332031 34.699219 C 34.285156 35.367188 32.398438 35.882812 31.199219 37.316406 C 30.148438 38.550781 28.882812 39.214844 27.765625 39.300781 C 26.648438 39.382812 25.683594 38.964844 25.117188 37.800781 L 25.101562 37.800781 C 24.75 37.132812 24.898438 36.082031 25.199219 34.984375 C 25.5 33.867188 25.917969 32.734375 25.984375 31.816406 C 26.035156 30.632812 26.101562 29.601562 26.300781 28.800781 C 26.515625 28.015625 26.832031 27.464844 27.382812 27.148438 L 27.464844 27.117188 C 27.515625 28.117188 28.035156 29.183594 28.949219 29.417969 C 29.933594 29.632812 31.367188 28.851562 31.964844 28.132812 L 32.316406 28.117188 C 32.851562 28.101562 33.300781 28.132812 33.75 28.566406 C 34.101562 28.898438 34.265625 29.449219 34.417969 30.035156 C 34.566406 30.699219 34.683594 31.332031 35.101562 31.800781 C 35.933594 32.683594 36.199219 33.316406 36.183594 33.699219 C 36.148438 34.148438 35.867188 34.367188 35.332031 34.699219 Z M 27.714844 18.300781 L 27.714844 19.832031 L 26.800781 19.832031 C 27.632812 21.351562 28.226562 22.984375 28.566406 24.683594 C 28.816406 24.667969 29.117188 24.714844 29.433594 24.785156 C 29.566406 24.433594 29.648438 24.082031 29.699219 23.734375 C 30.015625 21.417969 28.550781 19.148438 27.714844 18.300781 Z M 27.714844 18.300781 "/>
<path style=" stroke:none;fill-rule:nonzero;fill:rgb(97.647059%,75.686276%,1.960784%);fill-opacity:1;" d="M 23.699219 10.5 L 23.699219 10.734375 C 23.566406 10.5 23.316406 10.285156 22.882812 10.066406 C 21.984375 9.734375 21.601562 9.617188 21.101562 9.285156 C 20.300781 8.714844 19.617188 8.617188 19.066406 8.617188 C 18.765625 8.617188 18.5 8.667969 18.265625 8.714844 C 17.601562 8.949219 17.148438 9.382812 16.867188 9.734375 L 16.851562 9.734375 C 16.800781 9.785156 16.734375 9.832031 16.566406 9.949219 C 16.382812 10.050781 16.117188 10.285156 15.75 10.515625 C 15.417969 10.734375 15.300781 11.066406 15.417969 11.515625 C 15.535156 11.832031 15.898438 12.285156 16.582031 12.699219 C 17 12.917969 17.285156 13.25 17.617188 13.484375 C 17.785156 13.601562 17.964844 13.699219 18.167969 13.800781 C 18.398438 13.898438 18.648438 13.933594 18.917969 13.917969 C 19.632812 13.964844 20.148438 13.699219 20.617188 13.464844 C 21.082031 13.25 21.464844 12.917969 21.933594 12.699219 C 22.851562 12.367188 23.515625 11.816406 23.714844 11.285156 C 23.816406 11.035156 23.816406 10.75 23.699219 10.5 Z M 19.484375 9.398438 C 19.464844 9.367188 19.5 9.332031 19.515625 9.316406 C 20.066406 9.316406 20.234375 9.433594 20.214844 9.550781 C 20.199219 9.632812 20.066406 9.648438 19.984375 9.648438 C 19.898438 9.648438 19.832031 9.582031 19.75 9.550781 C 19.667969 9.515625 19.5 9.535156 19.484375 9.433594 Z M 18.050781 9.316406 C 18.183594 9.265625 18.367188 9.25 18.484375 9.316406 C 18.515625 9.332031 18.550781 9.367188 18.535156 9.398438 L 18.535156 9.433594 L 18.550781 9.433594 C 18.515625 9.535156 18.351562 9.515625 18.265625 9.550781 C 18.183594 9.582031 18.117188 9.667969 18.035156 9.667969 C 17.949219 9.667969 17.816406 9.632812 17.800781 9.550781 C 17.785156 9.433594 17.949219 9.316406 18.050781 9.316406 Z M 22.464844 11.300781 C 22.148438 11.515625 21.683594 11.851562 21.300781 12.082031 C 20.566406 12.417969 19.699219 12.964844 18.785156 12.964844 C 17.882812 12.964844 17.148438 12.515625 16.632812 12.183594 C 16.367188 11.964844 16.167969 11.75 16 11.632812 C 15.734375 11.417969 15.765625 11.082031 15.882812 11.082031 C 16.066406 11.101562 16.101562 11.300781 16.214844 11.417969 C 16.382812 11.515625 16.582031 11.75 16.816406 11.964844 C 17.316406 12.300781 17.964844 12.75 18.785156 12.75 C 19.601562 12.75 20.566406 12.300781 21.148438 11.964844 C 21.464844 11.75 21.898438 11.417969 22.234375 11.183594 C 22.5 10.964844 22.484375 10.75 22.714844 10.75 C 22.933594 10.765625 22.765625 10.964844 22.464844 11.300781 Z M 36.183594 33.699219 C 36.148438 34.148438 35.867188 34.367188 35.332031 34.699219 C 34.285156 35.367188 32.398438 35.882812 31.199219 37.316406 C 30.148438 38.550781 28.882812 39.214844 27.765625 39.300781 C 26.648438 39.382812 25.683594 38.964844 25.117188 37.800781 L 25.101562 37.800781 C 24.75 37.132812 24.898438 36.082031 25.199219 34.984375 C 25.5 33.867188 25.917969 32.734375 25.984375 31.816406 C 26.035156 30.632812 26.101562 29.601562 26.300781 28.800781 C 26.515625 28.015625 26.832031 27.464844 27.382812 27.148438 L 27.464844 27.117188 C 27.515625 28.117188 28.035156 29.183594 28.949219 29.417969 C 29.933594 29.632812 31.367188 28.851562 31.964844 28.132812 L 32.316406 28.117188 C 32.851562 28.101562 33.300781 28.132812 33.75 28.566406 C 34.101562 28.898438 34.265625 29.449219 34.417969 30.035156 C 34.566406 30.699219 34.683594 31.332031 35.101562 31.800781 C 35.933594 32.683594 36.199219 33.316406 36.183594 33.699219 Z M 16.015625 36.601562 L 16.015625 36.617188 C 15.917969 37.851562 15.199219 38.515625 14.117188 38.765625 C 13.015625 38.984375 11.550781 38.765625 10.066406 38 C 8.449219 37.101562 6.5 37.214844 5.265625 36.984375 C 4.632812 36.882812 4.234375 36.648438 4.035156 36.316406 C 3.851562 35.984375 3.851562 35.316406 4.25 34.265625 C 4.449219 33.699219 4.300781 33 4.199219 32.398438 C 4.117188 31.734375 4.066406 31.214844 4.285156 30.832031 C 4.550781 30.265625 4.949219 30.167969 5.433594 29.933594 C 5.933594 29.714844 6.515625 29.601562 6.984375 29.167969 L 6.984375 29.148438 C 7.417969 28.699219 7.734375 28.148438 8.117188 27.75 C 8.433594 27.417969 8.75 27.199219 9.234375 27.199219 L 9.25 27.199219 C 9.332031 27.199219 9.417969 27.199219 9.515625 27.214844 C 10.148438 27.316406 10.699219 27.785156 11.234375 28.464844 L 12.765625 31.25 L 12.785156 31.25 C 13.183594 32.132812 14.050781 33.035156 14.785156 33.984375 C 15.515625 34.984375 16.082031 35.867188 16.015625 36.601562 Z M 16.015625 36.601562 "/>
<path style=" stroke:none;fill-rule:nonzero;fill:rgb(0%,0%,0%);fill-opacity:1;" d="M 18.550781 9.433594 C 18.515625 9.535156 18.351562 9.515625 18.265625 9.550781 C 18.183594 9.582031 18.117188 9.667969 18.035156 9.667969 C 17.949219 9.667969 17.816406 9.632812 17.800781 9.550781 C 17.785156 9.433594 17.949219 9.316406 18.050781 9.316406 C 18.183594 9.265625 18.367188 9.25 18.484375 9.316406 C 18.515625 9.332031 18.550781 9.367188 18.535156 9.398438 L 18.535156 9.433594 Z M 22.464844 11.300781 C 22.148438 11.515625 21.683594 11.851562 21.300781 12.082031 C 20.566406 12.417969 19.699219 12.964844 18.785156 12.964844 C 17.882812 12.964844 17.148438 12.515625 16.632812 12.183594 C 16.367188 11.964844 16.167969 11.75 16 11.632812 C 15.734375 11.417969 15.765625 11.082031 15.882812 11.082031 C 16.066406 11.101562 16.101562 11.300781 16.214844 11.417969 C 16.382812 11.515625 16.582031 11.75 16.816406 11.964844 C 17.316406 12.300781 17.964844 12.75 18.785156 12.75 C 19.601562 12.75 20.566406 12.300781 21.148438 11.964844 C 21.464844 11.75 21.898438 11.417969 22.234375 11.183594 C 22.5 10.964844 22.484375 10.75 22.714844 10.75 C 22.933594 10.765625 22.765625 10.964844 22.464844 11.300781 Z M 22.464844 11.300781 "/>
</g>
</svg>
