<?xml version="1.0" encoding="UTF-8"?>
<svg xmlns="http://www.w3.org/2000/svg" xmlns:xlink="http://www.w3.org/1999/xlink" width="40px" height="40px" viewBox="0 0 40 40" version="1.1">
<g id="surface1">
<path style=" stroke:none;fill-rule:nonzero;fill:rgb(38.039216%,50.588238%,71.372551%);fill-opacity:1;" d="M 20 10.324219 C 9.457031 10.324219 0.90625 14.65625 0.90625 20 C 0.90625 25.34375 9.457031 29.675781 20 29.675781 C 30.542969 29.675781 39.09375 25.34375 39.09375 20 C 39.09375 14.65625 30.542969 10.324219 20 10.324219 Z M 15.03125 21.886719 C 14.578125 22.3125 14.070312 22.488281 13.511719 22.667969 C 12.957031 22.851562 12.246094 22.8125 11.386719 22.8125 L 9.429688 22.8125 L 8.890625 25.9375 L 6.609375 25.9375 L 8.644531 15.3125 L 13.03125 15.3125 C 14.351562 15.3125 15.3125 15.691406 15.917969 16.386719 C 16.523438 17.078125 16.707031 18.0625 16.464844 19.304688 C 16.367188 19.8125 16.199219 20.289062 15.960938 20.714844 C 15.722656 21.136719 15.414062 21.535156 15.03125 21.886719 Z M 21.691406 22.8125 L 22.59375 18.304688 C 22.695312 17.777344 22.65625 17.386719 22.480469 17.195312 C 22.300781 17.003906 21.921875 16.875 21.34375 16.875 L 19.535156 16.875 L 18.367188 22.8125 L 16.105469 22.8125 L 18.140625 12.5 L 20.402344 12.5 L 19.863281 15.3125 L 21.878906 15.3125 C 23.148438 15.3125 24.023438 15.566406 24.503906 16.007812 C 24.988281 16.453125 25.132812 17.058594 24.9375 18.050781 L 23.992188 22.8125 Z M 34.273438 19.320312 C 34.171875 19.832031 34.003906 20.296875 33.769531 20.722656 C 33.53125 21.144531 33.222656 21.535156 32.839844 21.886719 C 32.382812 22.3125 31.878906 22.488281 31.320312 22.667969 C 30.765625 22.851562 30.054688 22.8125 29.191406 22.8125 L 27.238281 22.8125 L 26.699219 25.9375 L 24.414062 25.9375 L 26.453125 15.3125 L 30.839844 15.3125 C 32.160156 15.3125 33.121094 15.691406 33.726562 16.386719 C 34.332031 17.078125 34.515625 18.078125 34.273438 19.320312 Z M 29.976562 16.875 L 28.410156 16.875 L 27.558594 21.25 L 28.949219 21.25 C 29.867188 21.25 30.554688 21.160156 31.003906 20.8125 C 31.453125 20.464844 31.757812 19.929688 31.914062 19.117188 C 32.066406 18.339844 31.996094 17.734375 31.707031 17.414062 C 31.417969 17.09375 30.839844 16.875 29.976562 16.875 Z M 12.167969 16.875 L 10.605469 16.875 L 9.75 21.25 L 11.140625 21.25 C 12.058594 21.25 12.746094 21.160156 13.195312 20.8125 C 13.644531 20.464844 13.949219 19.929688 14.105469 19.117188 C 14.257812 18.339844 14.1875 17.734375 13.898438 17.414062 C 13.609375 17.09375 13.035156 16.875 12.167969 16.875 Z M 12.167969 16.875 "/>
</g>
</svg>
